<mxfile host="app.diagrams.net" modified="2022-03-15T07:35:56.496Z" agent="5.0 (Macintosh; Intel Mac OS X 10_15_7) AppleWebKit/537.36 (KHTML, like Gecko) Chrome/99.0.4844.51 Safari/537.36" etag="4pTEAaLa0xeMq6X9Zvi_" version="17.1.2" type="github">
  <diagram id="ELzQkI0B_VzL88VeElWy" name="Page-1">
    <mxGraphModel dx="1298" dy="724" grid="1" gridSize="10" guides="1" tooltips="1" connect="1" arrows="1" fold="1" page="1" pageScale="1" pageWidth="827" pageHeight="1169" math="0" shadow="0">
      <root>
        <mxCell id="0" />
        <mxCell id="1" parent="0" />
        <mxCell id="WT2HxKEEHTfKgZkU8OQ8-4" style="edgeStyle=orthogonalEdgeStyle;rounded=0;orthogonalLoop=1;jettySize=auto;html=1;exitX=0;exitY=0.5;exitDx=0;exitDy=0;entryX=0.5;entryY=0;entryDx=0;entryDy=0;" edge="1" parent="1" source="WT2HxKEEHTfKgZkU8OQ8-1" target="WT2HxKEEHTfKgZkU8OQ8-2">
          <mxGeometry relative="1" as="geometry" />
        </mxCell>
        <mxCell id="WT2HxKEEHTfKgZkU8OQ8-14" style="edgeStyle=orthogonalEdgeStyle;rounded=0;orthogonalLoop=1;jettySize=auto;html=1;exitX=1;exitY=0.5;exitDx=0;exitDy=0;entryX=0.5;entryY=0;entryDx=0;entryDy=0;" edge="1" parent="1" source="WT2HxKEEHTfKgZkU8OQ8-1" target="WT2HxKEEHTfKgZkU8OQ8-6">
          <mxGeometry relative="1" as="geometry" />
        </mxCell>
        <mxCell id="WT2HxKEEHTfKgZkU8OQ8-1" value="user_coloring" style="rounded=1;whiteSpace=wrap;html=1;" vertex="1" parent="1">
          <mxGeometry x="186" y="380" width="120" height="60" as="geometry" />
        </mxCell>
        <mxCell id="WT2HxKEEHTfKgZkU8OQ8-2" value="railid db" style="rounded=1;whiteSpace=wrap;html=1;" vertex="1" parent="1">
          <mxGeometry x="80" y="500" width="120" height="60" as="geometry" />
        </mxCell>
        <mxCell id="WT2HxKEEHTfKgZkU8OQ8-5" value="各端railid 注册时间" style="text;html=1;align=center;verticalAlign=middle;resizable=0;points=[];autosize=1;strokeColor=none;fillColor=none;" vertex="1" parent="1">
          <mxGeometry x="87" y="570" width="120" height="20" as="geometry" />
        </mxCell>
        <mxCell id="WT2HxKEEHTfKgZkU8OQ8-10" style="edgeStyle=orthogonalEdgeStyle;rounded=0;orthogonalLoop=1;jettySize=auto;html=1;entryX=0.5;entryY=0;entryDx=0;entryDy=0;" edge="1" parent="1" source="WT2HxKEEHTfKgZkU8OQ8-6" target="WT2HxKEEHTfKgZkU8OQ8-7">
          <mxGeometry relative="1" as="geometry" />
        </mxCell>
        <mxCell id="WT2HxKEEHTfKgZkU8OQ8-12" style="edgeStyle=orthogonalEdgeStyle;rounded=0;orthogonalLoop=1;jettySize=auto;html=1;entryX=0.5;entryY=0;entryDx=0;entryDy=0;" edge="1" parent="1" source="WT2HxKEEHTfKgZkU8OQ8-6" target="WT2HxKEEHTfKgZkU8OQ8-8">
          <mxGeometry relative="1" as="geometry" />
        </mxCell>
        <mxCell id="WT2HxKEEHTfKgZkU8OQ8-13" style="edgeStyle=orthogonalEdgeStyle;rounded=0;orthogonalLoop=1;jettySize=auto;html=1;exitX=0.5;exitY=1;exitDx=0;exitDy=0;entryX=0.5;entryY=0;entryDx=0;entryDy=0;" edge="1" parent="1" source="WT2HxKEEHTfKgZkU8OQ8-6" target="WT2HxKEEHTfKgZkU8OQ8-9">
          <mxGeometry relative="1" as="geometry" />
        </mxCell>
        <mxCell id="WT2HxKEEHTfKgZkU8OQ8-6" value="user_game_login_history" style="rounded=1;whiteSpace=wrap;html=1;" vertex="1" parent="1">
          <mxGeometry x="306" y="500" width="144" height="60" as="geometry" />
        </mxCell>
        <mxCell id="WT2HxKEEHTfKgZkU8OQ8-7" value="pc" style="rounded=1;whiteSpace=wrap;html=1;" vertex="1" parent="1">
          <mxGeometry x="232" y="630" width="86" height="40" as="geometry" />
        </mxCell>
        <mxCell id="WT2HxKEEHTfKgZkU8OQ8-8" value="ios" style="rounded=1;whiteSpace=wrap;html=1;" vertex="1" parent="1">
          <mxGeometry x="335" y="630" width="86" height="40" as="geometry" />
        </mxCell>
        <mxCell id="WT2HxKEEHTfKgZkU8OQ8-9" value="android" style="rounded=1;whiteSpace=wrap;html=1;" vertex="1" parent="1">
          <mxGeometry x="438" y="630" width="86" height="40" as="geometry" />
        </mxCell>
        <mxCell id="WT2HxKEEHTfKgZkU8OQ8-15" value="玩家登录游戏历史" style="text;html=1;align=center;verticalAlign=middle;resizable=0;points=[];autosize=1;strokeColor=none;fillColor=none;" vertex="1" parent="1">
          <mxGeometry x="257" y="470" width="110" height="20" as="geometry" />
        </mxCell>
        <mxCell id="WT2HxKEEHTfKgZkU8OQ8-29" style="edgeStyle=orthogonalEdgeStyle;rounded=0;orthogonalLoop=1;jettySize=auto;html=1;exitX=0.5;exitY=1;exitDx=0;exitDy=0;entryX=0.5;entryY=0;entryDx=0;entryDy=0;" edge="1" parent="1" source="WT2HxKEEHTfKgZkU8OQ8-16" target="WT2HxKEEHTfKgZkU8OQ8-23">
          <mxGeometry relative="1" as="geometry" />
        </mxCell>
        <mxCell id="WT2HxKEEHTfKgZkU8OQ8-16" value="xxx? webapi" style="rounded=1;whiteSpace=wrap;html=1;" vertex="1" parent="1">
          <mxGeometry x="543" y="180" width="120" height="60" as="geometry" />
        </mxCell>
        <mxCell id="WT2HxKEEHTfKgZkU8OQ8-20" style="edgeStyle=orthogonalEdgeStyle;rounded=0;orthogonalLoop=1;jettySize=auto;html=1;entryX=0.5;entryY=0;entryDx=0;entryDy=0;" edge="1" parent="1" source="WT2HxKEEHTfKgZkU8OQ8-23" target="WT2HxKEEHTfKgZkU8OQ8-24">
          <mxGeometry relative="1" as="geometry" />
        </mxCell>
        <mxCell id="WT2HxKEEHTfKgZkU8OQ8-21" style="edgeStyle=orthogonalEdgeStyle;rounded=0;orthogonalLoop=1;jettySize=auto;html=1;entryX=0.5;entryY=0;entryDx=0;entryDy=0;" edge="1" parent="1" source="WT2HxKEEHTfKgZkU8OQ8-23" target="WT2HxKEEHTfKgZkU8OQ8-25">
          <mxGeometry relative="1" as="geometry" />
        </mxCell>
        <mxCell id="WT2HxKEEHTfKgZkU8OQ8-22" style="edgeStyle=orthogonalEdgeStyle;rounded=0;orthogonalLoop=1;jettySize=auto;html=1;exitX=0.5;exitY=1;exitDx=0;exitDy=0;entryX=0.5;entryY=0;entryDx=0;entryDy=0;" edge="1" parent="1" source="WT2HxKEEHTfKgZkU8OQ8-23" target="WT2HxKEEHTfKgZkU8OQ8-26">
          <mxGeometry relative="1" as="geometry" />
        </mxCell>
        <mxCell id="WT2HxKEEHTfKgZkU8OQ8-27" style="edgeStyle=orthogonalEdgeStyle;rounded=0;orthogonalLoop=1;jettySize=auto;html=1;exitX=0;exitY=0.5;exitDx=0;exitDy=0;entryX=0.5;entryY=0;entryDx=0;entryDy=0;" edge="1" parent="1" source="WT2HxKEEHTfKgZkU8OQ8-23" target="WT2HxKEEHTfKgZkU8OQ8-1">
          <mxGeometry relative="1" as="geometry" />
        </mxCell>
        <mxCell id="WT2HxKEEHTfKgZkU8OQ8-23" value="user_consumption" style="rounded=1;whiteSpace=wrap;html=1;" vertex="1" parent="1">
          <mxGeometry x="531" y="280" width="144" height="60" as="geometry" />
        </mxCell>
        <mxCell id="WT2HxKEEHTfKgZkU8OQ8-24" value="pc" style="rounded=1;whiteSpace=wrap;html=1;" vertex="1" parent="1">
          <mxGeometry x="457" y="410" width="86" height="40" as="geometry" />
        </mxCell>
        <mxCell id="WT2HxKEEHTfKgZkU8OQ8-25" value="ios 没有" style="rounded=1;whiteSpace=wrap;html=1;" vertex="1" parent="1">
          <mxGeometry x="560" y="410" width="86" height="40" as="geometry" />
        </mxCell>
        <mxCell id="WT2HxKEEHTfKgZkU8OQ8-26" value="android" style="rounded=1;whiteSpace=wrap;html=1;" vertex="1" parent="1">
          <mxGeometry x="663" y="410" width="86" height="40" as="geometry" />
        </mxCell>
        <mxCell id="WT2HxKEEHTfKgZkU8OQ8-28" value="查询用户染色情况" style="text;html=1;align=center;verticalAlign=middle;resizable=0;points=[];autosize=1;strokeColor=none;fillColor=none;" vertex="1" parent="1">
          <mxGeometry x="292" y="280" width="110" height="20" as="geometry" />
        </mxCell>
        <mxCell id="WT2HxKEEHTfKgZkU8OQ8-31" value="" style="edgeStyle=orthogonalEdgeStyle;rounded=0;orthogonalLoop=1;jettySize=auto;html=1;" edge="1" parent="1" source="WT2HxKEEHTfKgZkU8OQ8-30" target="WT2HxKEEHTfKgZkU8OQ8-16">
          <mxGeometry relative="1" as="geometry" />
        </mxCell>
        <mxCell id="WT2HxKEEHTfKgZkU8OQ8-30" value="developer" style="rounded=1;whiteSpace=wrap;html=1;" vertex="1" parent="1">
          <mxGeometry x="543" y="90" width="120" height="60" as="geometry" />
        </mxCell>
      </root>
    </mxGraphModel>
  </diagram>
</mxfile>
